<svg width="1024" height="1024" viewBox="0 0 1024 1024" fill="none" xmlns="http://www.w3.org/2000/svg">
<g clip-path="url(#clip0_11_2)">
<rect width="1024" height="1024" rx="175" fill="#006FFF"/>
<circle cx="512" cy="753" r="269" fill="white" fill-opacity="0.25"/>
<circle cx="512" cy="753" r="445" fill="white" fill-opacity="0.25"/>
<circle cx="512" cy="632.5" r="565.5" fill="white" fill-opacity="0.25"/>
<circle cx="512" cy="504" r="694" fill="white" fill-opacity="0.25"/>
<circle cx="512" cy="753" r="191" fill="white" fill-opacity="0.25"/>
<rect x="67" y="703" width="890" height="1752.27" rx="166.355" fill="#292929"/>
<rect x="116.906" y="752.907" width="792.96" height="1655.23" rx="124.766" fill="white"/>
<circle cx="512.953" cy="822.953" r="24.9533" fill="black"/>
<path d="M262.214 286.583C266.773 286.583 268.67 286.589 270.448 286.75V286.751C278.391 287.497 285.925 290.622 292.066 295.716L292.076 295.724C293.445 296.855 294.765 298.166 298.014 301.415L304.362 307.763C313.514 316.916 318.943 322.425 325.553 326.098V326.099C329.085 328.067 332.831 329.623 336.718 330.734L336.727 330.737C344.011 332.808 351.74 332.75 364.682 332.75H368.998C384.358 332.75 395.27 332.762 403.601 333.81C411.77 334.837 416.544 336.77 420.094 339.967L420.119 339.99L420.144 340.011C420.857 340.64 421.527 341.31 422.156 342.023L422.177 342.048L422.2 342.073C425.397 345.623 427.329 350.397 428.357 358.566C429.405 366.897 429.416 377.809 429.416 393.168V418.583C429.416 440.529 429.403 456.336 427.784 468.373C426.19 480.224 423.148 487.443 417.795 492.791C412.44 498.142 405.218 501.184 393.369 502.78C381.332 504.4 365.528 504.416 343.583 504.416H297.416C275.471 504.416 259.664 504.403 247.626 502.784C235.776 501.19 228.557 498.148 223.208 492.795C217.857 487.44 214.815 480.217 213.22 468.368C211.6 456.332 211.583 440.528 211.583 418.583V337.214C211.583 326.726 211.612 322.394 212.277 318.901L212.279 318.892C213.759 311.056 217.566 303.849 223.203 298.209C228.841 292.57 236.048 288.76 243.883 287.278H243.886C247.394 286.612 251.739 286.583 262.214 286.583Z" fill="#00AAEE" stroke="white" stroke-width="13"/>
<path d="M412.833 328.997C412.833 325.557 412.776 323.515 412.545 321.726C411.548 314.17 408.086 307.154 402.696 301.766C397.306 296.378 390.289 292.919 382.733 291.925C380.482 291.625 377.804 291.625 372.438 291.625H297.278C298.617 292.825 300.129 294.326 302.61 296.819L308.958 303.167C318.376 312.585 323.085 317.294 328.718 320.421C331.817 322.148 335.105 323.511 338.517 324.484C344.714 326.25 351.374 326.25 364.693 326.25H368.998C389.542 326.25 403.127 326.25 412.833 328.997Z" fill="#616161"/>
<path fill-rule="evenodd" clip-rule="evenodd" d="M323.385 372.417C323.385 370.121 324.297 367.919 325.921 366.296C327.544 364.672 329.746 363.76 332.042 363.76H389.75C392.046 363.76 394.247 364.672 395.871 366.296C397.494 367.919 398.406 370.121 398.406 372.417C398.406 374.712 397.494 376.914 395.871 378.538C394.247 380.161 392.046 381.073 389.75 381.073H332.042C329.746 381.073 327.544 380.161 325.921 378.538C324.297 376.914 323.385 374.712 323.385 372.417Z" fill="white" fill-opacity="0.5"/>
<path d="M815.125 320.771C815.125 333.44 810.092 345.591 801.133 354.55C792.174 363.509 780.023 368.542 767.354 368.542C754.684 368.542 742.534 363.508 733.575 354.55C724.616 345.591 719.583 333.44 719.583 320.771C719.583 308.101 724.617 295.951 733.575 286.992C742.534 278.034 754.684 273 767.354 273C771.198 273 774.948 273.449 778.541 274.312V222.322L673.625 244.669V344.354C673.625 357.024 668.591 369.174 659.633 378.133C650.674 387.092 638.523 392.125 625.854 392.125C613.184 392.125 601.034 387.092 592.075 378.133C583.117 369.174 578.083 357.024 578.083 344.354C578.083 331.685 583.116 319.534 592.075 310.575C601.034 301.617 613.184 296.583 625.854 296.583C629.698 296.583 633.448 297.032 637.041 297.896V203.495L642.18 202.395L807.263 167.02L815.125 165.335V320.771Z" fill="#00C54C" stroke="white" stroke-width="13"/>
</g>
<rect x="25.5" y="25.5" width="973" height="973" rx="149.5" stroke="white" stroke-width="51"/>
<defs>
<clipPath id="clip0_11_2">
<rect width="1024" height="1024" rx="175" fill="white"/>
</clipPath>
</defs>
</svg>
